solid Untitled-5bbe3eda
facet normal -2.2096475223166803e-30 2.4776815701299173e-31 -1.0
  outer loop
    vertex -3.903314723952383 14.56736886772201 -140.60932000000017
    vertex -3.066814498467787 0.8217504682005061 -140.60932000000017
    vertex -3.174999999999997 2.8199664825478975e-15 -140.60932000000017
  endloop
endfacet
facet normal -2.2096475223166803e-30 2.4776815701299173e-31 -1.0
  outer loop
    vertex -3.066814498467787 0.8217504682005061 -140.60932000000017
    vertex -3.903314723952383 14.56736886772201 -140.60932000000017
    vertex 5.639932965095795e-15 15.081249999999999 -140.60932000000017
  endloop
endfacet
facet normal -2.2096475223166803e-30 2.4776815701299173e-31 -1.0
  outer loop
    vertex -3.066814498467787 0.8217504682005061 -140.60932000000017
    vertex 5.639932965095795e-15 15.081249999999999 -140.60932000000017
    vertex -2.749630657015589 1.5875000000000028 -140.60932000000017
  endloop
endfacet
facet normal -2.2096475223166803e-30 2.4776815701299173e-31 -1.0
  outer loop
    vertex -2.749630657015589 1.5875000000000028 -140.60932000000017
    vertex 5.639932965095795e-15 15.081249999999999 -140.60932000000017
    vertex -2.245064030267284 2.2450640302672893 -140.60932000000017
  endloop
endfacet
facet normal -2.2096475223166803e-30 2.4776815701299173e-31 -1.0
  outer loop
    vertex -2.245064030267284 2.2450640302672893 -140.60932000000017
    vertex 5.639932965095795e-15 15.081249999999999 -140.60932000000017
    vertex -1.5874999999999944 2.7496306570155946 -140.60932000000017
  endloop
endfacet
facet normal -2.2096475223166803e-30 2.4776815701299173e-31 -1.0
  outer loop
    vertex -1.5874999999999944 2.7496306570155946 -140.60932000000017
    vertex 5.639932965095795e-15 15.081249999999999 -140.60932000000017
    vertex -0.8217504682004977 3.0668144984677927 -140.60932000000017
  endloop
endfacet
facet normal -2.2096475223166803e-30 2.4776815701299173e-31 -1.0
  outer loop
    vertex -0.8217504682004977 3.0668144984677927 -140.60932000000017
    vertex 5.639932965095795e-15 15.081249999999999 -140.60932000000017
    vertex 5.639932965095795e-15 3.175 -140.60932000000017
  endloop
endfacet
facet normal -2.2096475223166803e-30 2.4776815701299173e-31 -1.0
  outer loop
    vertex 5.639932965095795e-15 3.175 -140.60932000000017
    vertex 5.639932965095795e-15 15.081249999999999 -140.60932000000017
    vertex 3.9033147239523998 14.56736886772201 -140.60932000000017
  endloop
endfacet
facet normal -2.2096475223166803e-30 2.4776815701299173e-31 -1.0
  outer loop
    vertex 5.639932965095795e-15 3.175 -140.60932000000017
    vertex 3.9033147239523998 14.56736886772201 -140.60932000000017
    vertex 0.8217504682005089 3.06681449846779 -140.60932000000017
  endloop
endfacet
facet normal -2.2096475223166803e-30 2.4776815701299173e-31 -1.0
  outer loop
    vertex 0.8217504682005089 3.06681449846779 -140.60932000000017
    vertex 3.9033147239523998 14.56736886772201 -140.60932000000017
    vertex 1.5875000000000055 2.7496306570155915 -140.60932000000017
  endloop
endfacet
facet normal -2.2096475223166803e-30 2.4776815701299173e-31 -1.0
  outer loop
    vertex 1.5875000000000055 2.7496306570155915 -140.60932000000017
    vertex 3.9033147239523998 14.56736886772201 -140.60932000000017
    vertex 2.2450640302672924 2.2450640302672866 -140.60932000000017
  endloop
endfacet
facet normal -2.2096475223166803e-30 2.4776815701299173e-31 -1.0
  outer loop
    vertex 2.2450640302672924 2.2450640302672866 -140.60932000000017
    vertex 3.9033147239523998 14.56736886772201 -140.60932000000017
    vertex 2.7496306570155973 1.587499999999997 -140.60932000000017
  endloop
endfacet
facet normal -2.2096475223166803e-30 2.4776815701299173e-31 -1.0
  outer loop
    vertex 2.7496306570155973 1.587499999999997 -140.60932000000017
    vertex 3.9033147239523998 14.56736886772201 -140.60932000000017
    vertex 3.0668144984677954 0.8217504682005005 -140.60932000000017
  endloop
endfacet
facet normal -2.2096475223166803e-30 2.4776815701299173e-31 -1.0
  outer loop
    vertex 3.0668144984677954 0.8217504682005005 -140.60932000000017
    vertex 3.9033147239523998 14.56736886772201 -140.60932000000017
    vertex 3.1750000000000025 0.0 -140.60932000000017
  endloop
endfacet
facet normal -2.2096475223166803e-30 2.4776815701299173e-31 -1.0
  outer loop
    vertex 3.1750000000000025 0.0 -140.60932000000017
    vertex 3.9033147239523998 14.56736886772201 -140.60932000000017
    vertex 3.9033147239523855 -14.567368867722012 -140.60932000000017
  endloop
endfacet
facet normal -2.2096475223166803e-30 2.4776815701299173e-31 -1.0
  outer loop
    vertex 3.9033147239523855 -14.567368867722012 -140.60932000000017
    vertex 3.9033147239523998 14.56736886772201 -140.60932000000017
    vertex 7.540624999999988 -13.06074562082407 -140.60932000000017
  endloop
endfacet
facet normal -2.2096475223166803e-30 2.4776815701299173e-31 -1.0
  outer loop
    vertex 7.540624999999988 -13.06074562082407 -140.60932000000017
    vertex 3.9033147239523998 14.56736886772201 -140.60932000000017
    vertex 7.540625000000008 13.060745620824061 -140.60932000000017
  endloop
endfacet
facet normal -2.2096475223166803e-30 2.4776815701299173e-31 -1.0
  outer loop
    vertex 7.540624999999988 -13.06074562082407 -140.60932000000017
    vertex 7.540625000000008 13.060745620824061 -140.60932000000017
    vertex 10.664054143769619 -10.664054143769624 -140.60932000000017
  endloop
endfacet
facet normal -2.2096475223166803e-30 2.4776815701299173e-31 -1.0
  outer loop
    vertex 10.664054143769619 -10.664054143769624 -140.60932000000017
    vertex 7.540625000000008 13.060745620824061 -140.60932000000017
    vertex 10.664054143769624 10.664054143769615 -140.60932000000017
  endloop
endfacet
facet normal -2.2096475223166803e-30 2.4776815701299173e-31 -1.0
  outer loop
    vertex 10.664054143769619 -10.664054143769624 -140.60932000000017
    vertex 10.664054143769624 10.664054143769615 -140.60932000000017
    vertex 13.060745620824065 -7.540625000000009 -140.60932000000017
  endloop
endfacet
facet normal -2.2096475223166803e-30 2.4776815701299173e-31 -1.0
  outer loop
    vertex 13.060745620824065 -7.540625000000009 -140.60932000000017
    vertex 10.664054143769624 10.664054143769615 -140.60932000000017
    vertex 13.06074562082407 7.540624999999994 -140.60932000000017
  endloop
endfacet
facet normal -2.2096475223166803e-30 2.4776815701299173e-31 -1.0
  outer loop
    vertex 13.060745620824065 -7.540625000000009 -140.60932000000017
    vertex 13.06074562082407 7.540624999999994 -140.60932000000017
    vertex 14.567368867722012 -3.9033147239524055 -140.60932000000017
  endloop
endfacet
facet normal -2.2096475223166803e-30 2.4776815701299173e-31 -1.0
  outer loop
    vertex 14.567368867722012 -3.9033147239524055 -140.60932000000017
    vertex 13.06074562082407 7.540624999999994 -140.60932000000017
    vertex 14.567368867722012 3.9033147239523887 -140.60932000000017
  endloop
endfacet
facet normal -2.2096475223166803e-30 2.4776815701299173e-31 -1.0
  outer loop
    vertex 14.567368867722012 -3.9033147239524055 -140.60932000000017
    vertex 14.567368867722012 3.9033147239523887 -140.60932000000017
    vertex 15.081250000000002 -2.8199664825478975e-15 -140.60932000000017
  endloop
endfacet
facet normal -2.2096475223166803e-30 2.4776815701299173e-31 -1.0
  outer loop
    vertex -14.567368867722006 3.903314723952397 -140.60932000000017
    vertex -14.56736886772201 -3.903314723952383 -140.60932000000017
    vertex -15.081249999999997 5.639932965095795e-15 -140.60932000000017
  endloop
endfacet
facet normal -2.2096475223166803e-30 2.4776815701299173e-31 -1.0
  outer loop
    vertex -14.56736886772201 -3.903314723952383 -140.60932000000017
    vertex -14.567368867722006 3.903314723952397 -140.60932000000017
    vertex -13.060745620824065 -7.540624999999994 -140.60932000000017
  endloop
endfacet
facet normal -2.2096475223166803e-30 2.4776815701299173e-31 -1.0
  outer loop
    vertex -13.060745620824065 -7.540624999999994 -140.60932000000017
    vertex -14.567368867722006 3.903314723952397 -140.60932000000017
    vertex -13.060745620824056 7.540625000000008 -140.60932000000017
  endloop
endfacet
facet normal -2.2096475223166803e-30 2.4776815701299173e-31 -1.0
  outer loop
    vertex -13.060745620824065 -7.540624999999994 -140.60932000000017
    vertex -13.060745620824056 7.540625000000008 -140.60932000000017
    vertex -10.664054143769624 -10.664054143769611 -140.60932000000017
  endloop
endfacet
facet normal -2.2096475223166803e-30 2.4776815701299173e-31 -1.0
  outer loop
    vertex -10.664054143769624 -10.664054143769611 -140.60932000000017
    vertex -13.060745620824056 7.540625000000008 -140.60932000000017
    vertex -10.664054143769613 10.66405414376962 -140.60932000000017
  endloop
endfacet
facet normal -2.2096475223166803e-30 2.4776815701299173e-31 -1.0
  outer loop
    vertex -10.664054143769624 -10.664054143769611 -140.60932000000017
    vertex -10.664054143769613 10.66405414376962 -140.60932000000017
    vertex -7.540625000000007 -13.060745620824058 -140.60932000000017
  endloop
endfacet
facet normal -2.2096475223166803e-30 2.4776815701299173e-31 -1.0
  outer loop
    vertex -7.540625000000007 -13.060745620824058 -140.60932000000017
    vertex -10.664054143769613 10.66405414376962 -140.60932000000017
    vertex -7.5406249999999915 13.060745620824067 -140.60932000000017
  endloop
endfacet
facet normal -2.2096475223166803e-30 2.4776815701299173e-31 -1.0
  outer loop
    vertex -7.540625000000007 -13.060745620824058 -140.60932000000017
    vertex -7.5406249999999915 13.060745620824067 -140.60932000000017
    vertex -3.903314723952401 -14.567368867722006 -140.60932000000017
  endloop
endfacet
facet normal -2.2096475223166803e-30 2.4776815701299173e-31 -1.0
  outer loop
    vertex -3.903314723952401 -14.567368867722006 -140.60932000000017
    vertex -7.5406249999999915 13.060745620824067 -140.60932000000017
    vertex -3.903314723952383 14.56736886772201 -140.60932000000017
  endloop
endfacet
facet normal -2.2096475223166803e-30 2.4776815701299173e-31 -1.0
  outer loop
    vertex -3.903314723952401 -14.567368867722006 -140.60932000000017
    vertex -3.903314723952383 14.56736886772201 -140.60932000000017
    vertex -3.174999999999997 2.8199664825478975e-15 -140.60932000000017
  endloop
endfacet
facet normal -2.2096475223166803e-30 2.4776815701299173e-31 -1.0
  outer loop
    vertex -3.903314723952401 -14.567368867722006 -140.60932000000017
    vertex -3.174999999999997 2.8199664825478975e-15 -140.60932000000017
    vertex -3.06681449846779 -0.8217504682005005 -140.60932000000017
  endloop
endfacet
facet normal -2.2096475223166803e-30 2.4776815701299173e-31 -1.0
  outer loop
    vertex -3.903314723952401 -14.567368867722006 -140.60932000000017
    vertex -3.06681449846779 -0.8217504682005005 -140.60932000000017
    vertex -2.8199664825478975e-15 -15.081249999999999 -140.60932000000017
  endloop
endfacet
facet normal -2.2096475223166803e-30 2.4776815701299173e-31 -1.0
  outer loop
    vertex -2.8199664825478975e-15 -15.081249999999999 -140.60932000000017
    vertex -3.06681449846779 -0.8217504682005005 -140.60932000000017
    vertex -2.7496306570155915 -1.587499999999997 -140.60932000000017
  endloop
endfacet
facet normal -2.2096475223166803e-30 2.4776815701299173e-31 -1.0
  outer loop
    vertex -2.8199664825478975e-15 -15.081249999999999 -140.60932000000017
    vertex -2.7496306570155915 -1.587499999999997 -140.60932000000017
    vertex -2.2450640302672866 -2.2450640302672866 -140.60932000000017
  endloop
endfacet
facet normal -2.2096475223166803e-30 2.4776815701299173e-31 -1.0
  outer loop
    vertex -2.8199664825478975e-15 -15.081249999999999 -140.60932000000017
    vertex -2.2450640302672866 -2.2450640302672866 -140.60932000000017
    vertex -1.5875 -2.7496306570155915 -140.60932000000017
  endloop
endfacet
facet normal -2.2096475223166803e-30 2.4776815701299173e-31 -1.0
  outer loop
    vertex -2.8199664825478975e-15 -15.081249999999999 -140.60932000000017
    vertex -1.5875 -2.7496306570155915 -140.60932000000017
    vertex -0.8217504682004977 -3.0668144984677914 -140.60932000000017
  endloop
endfacet
facet normal -2.2096475223166803e-30 2.4776815701299173e-31 -1.0
  outer loop
    vertex -2.8199664825478975e-15 -15.081249999999999 -140.60932000000017
    vertex -0.8217504682004977 -3.0668144984677914 -140.60932000000017
    vertex 2.8199664825478975e-15 -3.175 -140.60932000000017
  endloop
endfacet
facet normal -2.2096475223166803e-30 2.4776815701299173e-31 -1.0
  outer loop
    vertex -2.8199664825478975e-15 -15.081249999999999 -140.60932000000017
    vertex 2.8199664825478975e-15 -3.175 -140.60932000000017
    vertex 3.9033147239523855 -14.567368867722012 -140.60932000000017
  endloop
endfacet
facet normal -2.2096475223166803e-30 2.4776815701299173e-31 -1.0
  outer loop
    vertex 3.9033147239523855 -14.567368867722012 -140.60932000000017
    vertex 2.8199664825478975e-15 -3.175 -140.60932000000017
    vertex 0.8217504682005061 -3.0668144984677927 -140.60932000000017
  endloop
endfacet
facet normal -2.2096475223166803e-30 2.4776815701299173e-31 -1.0
  outer loop
    vertex 3.9033147239523855 -14.567368867722012 -140.60932000000017
    vertex 0.8217504682005061 -3.0668144984677927 -140.60932000000017
    vertex 1.5875000000000028 -2.7496306570155933 -140.60932000000017
  endloop
endfacet
facet normal -2.2096475223166803e-30 2.4776815701299173e-31 -1.0
  outer loop
    vertex 3.9033147239523855 -14.567368867722012 -140.60932000000017
    vertex 1.5875000000000028 -2.7496306570155933 -140.60932000000017
    vertex 2.2450640302672893 -2.2450640302672893 -140.60932000000017
  endloop
endfacet
facet normal -2.2096475223166803e-30 2.4776815701299173e-31 -1.0
  outer loop
    vertex 3.9033147239523855 -14.567368867722012 -140.60932000000017
    vertex 2.2450640302672893 -2.2450640302672893 -140.60932000000017
    vertex 2.7496306570155946 -1.5875 -140.60932000000017
  endloop
endfacet
facet normal -2.2096475223166803e-30 2.4776815701299173e-31 -1.0
  outer loop
    vertex 3.9033147239523855 -14.567368867722012 -140.60932000000017
    vertex 2.7496306570155946 -1.5875 -140.60932000000017
    vertex 3.0668144984677927 -0.8217504682005061 -140.60932000000017
  endloop
endfacet
facet normal -2.2096475223166803e-30 2.4776815701299173e-31 -1.0
  outer loop
    vertex 3.9033147239523855 -14.567368867722012 -140.60932000000017
    vertex 3.0668144984677927 -0.8217504682005061 -140.60932000000017
    vertex 3.1750000000000025 0.0 -140.60932000000017
  endloop
endfacet
facet normal 0.7933533402912353 0.6087614290087204 0.0
  outer loop
    vertex 8.980256121069155 8.980256121069152 -139.02182000000016
    vertex 10.99852262806237 6.350000000000002 -137.43432000000018
    vertex 10.99852262806237 6.350000000000002 -139.02182000000016
  endloop
endfacet
facet normal 0.7933533402912353 0.6087614290087204 0.0
  outer loop
    vertex 10.99852262806237 6.350000000000002 -137.43432000000018
    vertex 8.980256121069155 8.980256121069152 -139.02182000000016
    vertex 8.980256121069155 8.980256121069152 -137.43432000000018
  endloop
endfacet
facet normal 0.6087614290087193 -0.7933533402912362 0.0
  outer loop
    vertex 10.664054143769619 -10.664054143769624 -139.02182000000016
    vertex 7.540624999999988 -13.06074562082407 -140.60932000000017
    vertex 10.664054143769619 -10.664054143769624 -140.60932000000017
  endloop
endfacet
facet normal 0.6087614290087193 -0.7933533402912362 0.0
  outer loop
    vertex 7.540624999999988 -13.06074562082407 -140.60932000000017
    vertex 10.664054143769619 -10.664054143769624 -139.02182000000016
    vertex 7.540624999999988 -13.06074562082407 -139.02182000000016
  endloop
endfacet
facet normal 0.793353340291235 -0.6087614290087208 0.0
  outer loop
    vertex 13.060745620824065 -7.540625000000009 -140.60932000000017
    vertex 10.664054143769619 -10.664054143769624 -139.02182000000016
    vertex 10.664054143769619 -10.664054143769624 -140.60932000000017
  endloop
endfacet
facet normal 0.793353340291235 -0.6087614290087208 0.0
  outer loop
    vertex 10.664054143769619 -10.664054143769624 -139.02182000000016
    vertex 13.060745620824065 -7.540625000000009 -140.60932000000017
    vertex 13.060745620824065 -7.540625000000009 -139.02182000000016
  endloop
endfacet
facet normal -0.13052619222005188 0.9914448613738105 0.0
  outer loop
    vertex -3.903314723952383 14.56736886772201 -139.02182000000016
    vertex 5.639932965095795e-15 15.081249999999999 -140.60932000000017
    vertex -3.903314723952383 14.56736886772201 -140.60932000000017
  endloop
endfacet
facet normal -0.13052619222005188 0.9914448613738105 0.0
  outer loop
    vertex 5.639932965095795e-15 15.081249999999999 -140.60932000000017
    vertex -3.903314723952383 14.56736886772201 -139.02182000000016
    vertex 5.639932965095795e-15 15.081249999999999 -139.02182000000016
  endloop
endfacet
facet normal -0.9238795325112868 -0.3826834323650894 -0.0
  outer loop
    vertex -14.56736886772201 -3.903314723952383 -139.02182000000016
    vertex -13.060745620824065 -7.540624999999994 -140.60932000000017
    vertex -13.060745620824065 -7.540624999999994 -139.02182000000016
  endloop
endfacet
facet normal -0.9238795325112868 -0.3826834323650894 -0.0
  outer loop
    vertex -13.060745620824065 -7.540624999999994 -140.60932000000017
    vertex -14.56736886772201 -3.903314723952383 -139.02182000000016
    vertex -14.56736886772201 -3.903314723952383 -140.60932000000017
  endloop
endfacet
facet normal 0.13052619222005174 0.9914448613738104 0.0
  outer loop
    vertex 5.639932965095795e-15 15.081249999999999 -139.02182000000016
    vertex 3.9033147239523998 14.56736886772201 -140.60932000000017
    vertex 5.639932965095795e-15 15.081249999999999 -140.60932000000017
  endloop
endfacet
facet normal 0.13052619222005174 0.9914448613738104 0.0
  outer loop
    vertex 3.9033147239523998 14.56736886772201 -140.60932000000017
    vertex 5.639932965095795e-15 15.081249999999999 -139.02182000000016
    vertex 3.9033147239523998 14.56736886772201 -139.02182000000016
  endloop
endfacet
facet normal 0.9914448613738105 -0.13052619222005216 0.0
  outer loop
    vertex 15.081250000000002 -2.8199664825478975e-15 -140.60932000000017
    vertex 14.567368867722012 -3.9033147239524055 -139.02182000000016
    vertex 14.567368867722012 -3.9033147239524055 -140.60932000000017
  endloop
endfacet
facet normal 0.9914448613738105 -0.13052619222005216 0.0
  outer loop
    vertex 14.567368867722012 -3.9033147239524055 -139.02182000000016
    vertex 15.081250000000002 -2.8199664825478975e-15 -140.60932000000017
    vertex 15.081250000000002 -2.8199664825478975e-15 -139.02182000000016
  endloop
endfacet
facet normal 0.9238795325112864 -0.3826834323650907 0.0
  outer loop
    vertex 14.567368867722012 -3.9033147239524055 -140.60932000000017
    vertex 13.060745620824065 -7.540625000000009 -139.02182000000016
    vertex 13.060745620824065 -7.540625000000009 -140.60932000000017
  endloop
endfacet
facet normal 0.9238795325112864 -0.3826834323650907 0.0
  outer loop
    vertex 13.060745620824065 -7.540625000000009 -139.02182000000016
    vertex 14.567368867722012 -3.9033147239524055 -140.60932000000017
    vertex 14.567368867722012 -3.9033147239524055 -139.02182000000016
  endloop
endfacet
facet normal 0.923879532511287 0.3826834323650891 0.0
  outer loop
    vertex 13.06074562082407 7.540624999999994 -140.60932000000017
    vertex 14.567368867722012 3.9033147239523887 -139.02182000000016
    vertex 14.567368867722012 3.9033147239523887 -140.60932000000017
  endloop
endfacet
facet normal 0.923879532511287 0.3826834323650891 0.0
  outer loop
    vertex 14.567368867722012 3.9033147239523887 -139.02182000000016
    vertex 13.06074562082407 7.540624999999994 -140.60932000000017
    vertex 13.06074562082407 7.540624999999994 -139.02182000000016
  endloop
endfacet
facet normal 0.3826834323650895 -0.923879532511287 0.0
  outer loop
    vertex 7.540624999999988 -13.06074562082407 -139.02182000000016
    vertex 3.9033147239523855 -14.567368867722012 -140.60932000000017
    vertex 7.540624999999988 -13.06074562082407 -140.60932000000017
  endloop
endfacet
facet normal 0.3826834323650895 -0.923879532511287 0.0
  outer loop
    vertex 3.9033147239523855 -14.567368867722012 -140.60932000000017
    vertex 7.540624999999988 -13.06074562082407 -139.02182000000016
    vertex 3.9033147239523855 -14.567368867722012 -139.02182000000016
  endloop
endfacet
facet normal -0.38268343236509056 -0.9238795325112864 -0.0
  outer loop
    vertex -3.903314723952401 -14.567368867722006 -139.02182000000016
    vertex -7.540625000000007 -13.060745620824058 -140.60932000000017
    vertex -3.903314723952401 -14.567368867722006 -140.60932000000017
  endloop
endfacet
facet normal -0.38268343236509056 -0.9238795325112864 -0.0
  outer loop
    vertex -7.540625000000007 -13.060745620824058 -140.60932000000017
    vertex -3.903314723952401 -14.567368867722006 -139.02182000000016
    vertex -7.540625000000007 -13.060745620824058 -139.02182000000016
  endloop
endfacet
facet normal 0.38268343236509045 0.9238795325112865 0.0
  outer loop
    vertex 3.9033147239523998 14.56736886772201 -139.02182000000016
    vertex 7.540625000000008 13.060745620824061 -140.60932000000017
    vertex 3.9033147239523998 14.56736886772201 -140.60932000000017
  endloop
endfacet
facet normal 0.38268343236509045 0.9238795325112865 0.0
  outer loop
    vertex 7.540625000000008 13.060745620824061 -140.60932000000017
    vertex 3.9033147239523998 14.56736886772201 -139.02182000000016
    vertex 7.540625000000008 13.060745620824061 -139.02182000000016
  endloop
endfacet
facet normal -0.7933533402912349 0.608761429008721 0.0
  outer loop
    vertex -10.664054143769613 10.66405414376962 -139.02182000000016
    vertex -13.060745620824056 7.540625000000008 -140.60932000000017
    vertex -13.060745620824056 7.540625000000008 -139.02182000000016
  endloop
endfacet
facet normal -0.7933533402912349 0.608761429008721 0.0
  outer loop
    vertex -13.060745620824056 7.540625000000008 -140.60932000000017
    vertex -10.664054143769613 10.66405414376962 -139.02182000000016
    vertex -10.664054143769613 10.66405414376962 -140.60932000000017
  endloop
endfacet
facet normal 0.13052619222005127 -0.9914448613738106 0.0
  outer loop
    vertex 3.9033147239523855 -14.567368867722012 -139.02182000000016
    vertex -2.8199664825478975e-15 -15.081249999999999 -140.60932000000017
    vertex 3.9033147239523855 -14.567368867722012 -140.60932000000017
  endloop
endfacet
facet normal 0.13052619222005127 -0.9914448613738106 0.0
  outer loop
    vertex -2.8199664825478975e-15 -15.081249999999999 -140.60932000000017
    vertex 3.9033147239523855 -14.567368867722012 -139.02182000000016
    vertex -2.8199664825478975e-15 -15.081249999999999 -139.02182000000016
  endloop
endfacet
facet normal -0.9914448613738106 -0.13052619222005127 -0.0
  outer loop
    vertex -15.081249999999997 5.639932965095795e-15 -139.02182000000016
    vertex -14.56736886772201 -3.903314723952383 -140.60932000000017
    vertex -14.56736886772201 -3.903314723952383 -139.02182000000016
  endloop
endfacet
facet normal -0.9914448613738106 -0.13052619222005127 -0.0
  outer loop
    vertex -14.56736886772201 -3.903314723952383 -140.60932000000017
    vertex -15.081249999999997 5.639932965095795e-15 -139.02182000000016
    vertex -15.081249999999997 5.639932965095795e-15 -140.60932000000017
  endloop
endfacet
facet normal 0.6087614290087209 0.793353340291235 0.0
  outer loop
    vertex 7.540625000000008 13.060745620824061 -139.02182000000016
    vertex 10.664054143769624 10.664054143769615 -140.60932000000017
    vertex 7.540625000000008 13.060745620824061 -140.60932000000017
  endloop
endfacet
facet normal 0.6087614290087209 0.793353340291235 0.0
  outer loop
    vertex 10.664054143769624 10.664054143769615 -140.60932000000017
    vertex 7.540625000000008 13.060745620824061 -139.02182000000016
    vertex 10.664054143769624 10.664054143769615 -139.02182000000016
  endloop
endfacet
facet normal -0.7933533402912356 -0.60876142900872 -0.0
  outer loop
    vertex -13.060745620824065 -7.540624999999994 -139.02182000000016
    vertex -10.664054143769624 -10.664054143769611 -140.60932000000017
    vertex -10.664054143769624 -10.664054143769611 -139.02182000000016
  endloop
endfacet
facet normal -0.7933533402912356 -0.60876142900872 -0.0
  outer loop
    vertex -10.664054143769624 -10.664054143769611 -140.60932000000017
    vertex -13.060745620824065 -7.540624999999994 -139.02182000000016
    vertex -13.060745620824065 -7.540624999999994 -140.60932000000017
  endloop
endfacet
facet normal -0.9914448613738105 0.1305261922200518 0.0
  outer loop
    vertex -14.567368867722006 3.903314723952397 -139.02182000000016
    vertex -15.081249999999997 5.639932965095795e-15 -140.60932000000017
    vertex -15.081249999999997 5.639932965095795e-15 -139.02182000000016
  endloop
endfacet
facet normal -0.9914448613738105 0.1305261922200518 0.0
  outer loop
    vertex -15.081249999999997 5.639932965095795e-15 -140.60932000000017
    vertex -14.567368867722006 3.903314723952397 -139.02182000000016
    vertex -14.567368867722006 3.903314723952397 -140.60932000000017
  endloop
endfacet
facet normal -0.1305261922200523 -0.9914448613738103 -0.0
  outer loop
    vertex -2.8199664825478975e-15 -15.081249999999999 -139.02182000000016
    vertex -3.903314723952401 -14.567368867722006 -140.60932000000017
    vertex -2.8199664825478975e-15 -15.081249999999999 -140.60932000000017
  endloop
endfacet
facet normal -0.1305261922200523 -0.9914448613738103 -0.0
  outer loop
    vertex -3.903314723952401 -14.567368867722006 -140.60932000000017
    vertex -2.8199664825478975e-15 -15.081249999999999 -139.02182000000016
    vertex -3.903314723952401 -14.567368867722006 -139.02182000000016
  endloop
endfacet
facet normal -0.6087614290087211 -0.7933533402912348 -0.0
  outer loop
    vertex -7.540625000000007 -13.060745620824058 -139.02182000000016
    vertex -10.664054143769624 -10.664054143769611 -140.60932000000017
    vertex -7.540625000000007 -13.060745620824058 -140.60932000000017
  endloop
endfacet
facet normal -0.6087614290087211 -0.7933533402912348 -0.0
  outer loop
    vertex -10.664054143769624 -10.664054143769611 -140.60932000000017
    vertex -7.540625000000007 -13.060745620824058 -139.02182000000016
    vertex -10.664054143769624 -10.664054143769611 -139.02182000000016
  endloop
endfacet
facet normal -0.9238795325112864 0.3826834323650908 0.0
  outer loop
    vertex -13.060745620824056 7.540625000000008 -139.02182000000016
    vertex -14.567368867722006 3.903314723952397 -140.60932000000017
    vertex -14.567368867722006 3.903314723952397 -139.02182000000016
  endloop
endfacet
facet normal -0.9238795325112864 0.3826834323650908 0.0
  outer loop
    vertex -14.567368867722006 3.903314723952397 -140.60932000000017
    vertex -13.060745620824056 7.540625000000008 -139.02182000000016
    vertex -13.060745620824056 7.540625000000008 -140.60932000000017
  endloop
endfacet
facet normal 0.7933533402912353 0.6087614290087205 0.0
  outer loop
    vertex 10.664054143769624 10.664054143769615 -140.60932000000017
    vertex 13.06074562082407 7.540624999999994 -139.02182000000016
    vertex 13.06074562082407 7.540624999999994 -140.60932000000017
  endloop
endfacet
facet normal 0.7933533402912353 0.6087614290087205 0.0
  outer loop
    vertex 13.06074562082407 7.540624999999994 -139.02182000000016
    vertex 10.664054143769624 10.664054143769615 -140.60932000000017
    vertex 10.664054143769624 10.664054143769615 -139.02182000000016
  endloop
endfacet
facet normal 0.0 0.0 1.0
  outer loop
    vertex -14.56736886772201 -3.903314723952383 -139.02182000000016
    vertex -14.567368867722006 3.903314723952397 -139.02182000000016
    vertex -15.081249999999997 5.639932965095795e-15 -139.02182000000016
  endloop
endfacet
facet normal 0.0 0.0 1.0
  outer loop
    vertex -14.567368867722006 3.903314723952397 -139.02182000000016
    vertex -14.56736886772201 -3.903314723952383 -139.02182000000016
    vertex -13.060745620824065 -7.540624999999994 -139.02182000000016
  endloop
endfacet
facet normal 0.0 0.0 1.0
  outer loop
    vertex -14.567368867722006 3.903314723952397 -139.02182000000016
    vertex -13.060745620824065 -7.540624999999994 -139.02182000000016
    vertex -13.060745620824056 7.540625000000008 -139.02182000000016
  endloop
endfacet
facet normal 0.0 0.0 1.0
  outer loop
    vertex -13.060745620824056 7.540625000000008 -139.02182000000016
    vertex -13.060745620824065 -7.540624999999994 -139.02182000000016
    vertex -12.699999999999996 0.0 -139.02182000000016
  endloop
endfacet
facet normal 0.0 0.0 1.0
  outer loop
    vertex -12.699999999999996 0.0 -139.02182000000016
    vertex -13.060745620824065 -7.540624999999994 -139.02182000000016
    vertex -12.267257993871164 -3.2870018728020134 -139.02182000000016
  endloop
endfacet
facet normal 0.0 0.0 1.0
  outer loop
    vertex -12.267257993871164 -3.2870018728020134 -139.02182000000016
    vertex -13.060745620824065 -7.540624999999994 -139.02182000000016
    vertex -10.664054143769624 -10.664054143769611 -139.02182000000016
  endloop
endfacet
facet normal 0.0 0.0 1.0
  outer loop
    vertex -12.267257993871164 -3.2870018728020134 -139.02182000000016
    vertex -10.664054143769624 -10.664054143769611 -139.02182000000016
    vertex -10.998522628062366 -6.350000000000001 -139.02182000000016
  endloop
endfacet
facet normal 0.0 0.0 1.0
  outer loop
    vertex -10.998522628062366 -6.350000000000001 -139.02182000000016
    vertex -10.664054143769624 -10.664054143769611 -139.02182000000016
    vertex -8.98025612106915 -8.980256121069152 -139.02182000000016
  endloop
endfacet
facet normal 0.0 0.0 1.0
  outer loop
    vertex -8.98025612106915 -8.980256121069152 -139.02182000000016
    vertex -10.664054143769624 -10.664054143769611 -139.02182000000016
    vertex -7.540625000000007 -13.060745620824058 -139.02182000000016
  endloop
endfacet
facet normal 0.0 0.0 1.0
  outer loop
    vertex -8.98025612106915 -8.980256121069152 -139.02182000000016
    vertex -7.540625000000007 -13.060745620824058 -139.02182000000016
    vertex -6.349999999999997 -10.998522628062371 -139.02182000000016
  endloop
endfacet
facet normal 0.0 0.0 1.0
  outer loop
    vertex -6.349999999999997 -10.998522628062371 -139.02182000000016
    vertex -7.540625000000007 -13.060745620824058 -139.02182000000016
    vertex -3.903314723952401 -14.567368867722006 -139.02182000000016
  endloop
endfacet
facet normal 0.0 0.0 1.0
  outer loop
    vertex -6.349999999999997 -10.998522628062371 -139.02182000000016
    vertex -3.903314723952401 -14.567368867722006 -139.02182000000016
    vertex -3.2870018728020116 -12.267257993871166 -139.02182000000016
  endloop
endfacet
facet normal 0.0 0.0 1.0
  outer loop
    vertex -3.2870018728020116 -12.267257993871166 -139.02182000000016
    vertex -3.903314723952401 -14.567368867722006 -139.02182000000016
    vertex -2.8199664825478975e-15 -15.081249999999999 -139.02182000000016
  endloop
endfacet
facet normal 0.0 0.0 1.0
  outer loop
    vertex -3.2870018728020116 -12.267257993871166 -139.02182000000016
    vertex -2.8199664825478975e-15 -15.081249999999999 -139.02182000000016
    vertex 0.0 -12.7 -139.02182000000016
  endloop
endfacet
facet normal 0.0 0.0 1.0
  outer loop
    vertex 0.0 -12.7 -139.02182000000016
    vertex -2.8199664825478975e-15 -15.081249999999999 -139.02182000000016
    vertex 3.9033147239523855 -14.567368867722012 -139.02182000000016
  endloop
endfacet
facet normal 0.0 0.0 1.0
  outer loop
    vertex 0.0 -12.7 -139.02182000000016
    vertex 3.9033147239523855 -14.567368867722012 -139.02182000000016
    vertex 3.287001872802016 -12.267257993871167 -139.02182000000016
  endloop
endfacet
facet normal 0.0 0.0 1.0
  outer loop
    vertex 3.287001872802016 -12.267257993871167 -139.02182000000016
    vertex 3.9033147239523855 -14.567368867722012 -139.02182000000016
    vertex 6.350000000000002 -10.998522628062371 -139.02182000000016
  endloop
endfacet
facet normal 0.0 0.0 1.0
  outer loop
    vertex 6.350000000000002 -10.998522628062371 -139.02182000000016
    vertex 3.9033147239523855 -14.567368867722012 -139.02182000000016
    vertex 7.540624999999988 -13.06074562082407 -139.02182000000016
  endloop
endfacet
facet normal 0.0 0.0 1.0
  outer loop
    vertex 6.350000000000002 -10.998522628062371 -139.02182000000016
    vertex 7.540624999999988 -13.06074562082407 -139.02182000000016
    vertex 8.980256121069155 -8.980256121069154 -139.02182000000016
  endloop
endfacet
facet normal 0.0 0.0 1.0
  outer loop
    vertex 8.980256121069155 -8.980256121069154 -139.02182000000016
    vertex 7.540624999999988 -13.06074562082407 -139.02182000000016
    vertex 10.664054143769619 -10.664054143769624 -139.02182000000016
  endloop
endfacet
facet normal 0.0 0.0 1.0
  outer loop
    vertex 8.980256121069155 -8.980256121069154 -139.02182000000016
    vertex 10.664054143769619 -10.664054143769624 -139.02182000000016
    vertex 10.99852262806237 -6.350000000000001 -139.02182000000016
  endloop
endfacet
facet normal 0.0 0.0 1.0
  outer loop
    vertex 10.99852262806237 -6.350000000000001 -139.02182000000016
    vertex 10.664054143769619 -10.664054143769624 -139.02182000000016
    vertex 13.060745620824065 -7.540625000000009 -139.02182000000016
  endloop
endfacet
facet normal 0.0 0.0 1.0
  outer loop
    vertex 10.99852262806237 -6.350000000000001 -139.02182000000016
    vertex 13.060745620824065 -7.540625000000009 -139.02182000000016
    vertex 12.267257993871167 -3.287001872802016 -139.02182000000016
  endloop
endfacet
facet normal 0.0 0.0 1.0
  outer loop
    vertex 12.267257993871167 -3.287001872802016 -139.02182000000016
    vertex 13.060745620824065 -7.540625000000009 -139.02182000000016
    vertex 12.700000000000003 -2.8199664825478975e-15 -139.02182000000016
  endloop
endfacet
facet normal 0.0 0.0 1.0
  outer loop
    vertex -13.060745620824056 7.540625000000008 -139.02182000000016
    vertex -12.267257993871164 3.2870018728020103 -139.02182000000016
    vertex -10.664054143769613 10.66405414376962 -139.02182000000016
  endloop
endfacet
facet normal 0.0 0.0 1.0
  outer loop
    vertex -12.267257993871164 3.2870018728020103 -139.02182000000016
    vertex -13.060745620824056 7.540625000000008 -139.02182000000016
    vertex -12.699999999999996 0.0 -139.02182000000016
  endloop
endfacet
facet normal 0.0 0.0 1.0
  outer loop
    vertex -10.664054143769613 10.66405414376962 -139.02182000000016
    vertex -12.267257993871164 3.2870018728020103 -139.02182000000016
    vertex -10.998522628062368 6.35 -139.02182000000016
  endloop
endfacet
facet normal 0.0 0.0 1.0
  outer loop
    vertex -10.664054143769613 10.66405414376962 -139.02182000000016
    vertex -10.998522628062368 6.35 -139.02182000000016
    vertex -8.980256121069154 8.98025612106915 -139.02182000000016
  endloop
endfacet
facet normal 0.0 0.0 1.0
  outer loop
    vertex -10.664054143769613 10.66405414376962 -139.02182000000016
    vertex -8.980256121069154 8.98025612106915 -139.02182000000016
    vertex -7.5406249999999915 13.060745620824067 -139.02182000000016
  endloop
endfacet
facet normal 0.0 0.0 1.0
  outer loop
    vertex -7.5406249999999915 13.060745620824067 -139.02182000000016
    vertex -8.980256121069154 8.98025612106915 -139.02182000000016
    vertex -6.35 10.998522628062366 -139.02182000000016
  endloop
endfacet
facet normal 0.0 0.0 1.0
  outer loop
    vertex -7.5406249999999915 13.060745620824067 -139.02182000000016
    vertex -6.35 10.998522628062366 -139.02182000000016
    vertex -3.903314723952383 14.56736886772201 -139.02182000000016
  endloop
endfacet
facet normal 0.0 0.0 1.0
  outer loop
    vertex -3.903314723952383 14.56736886772201 -139.02182000000016
    vertex -6.35 10.998522628062366 -139.02182000000016
    vertex -3.287001872802016 12.267257993871166 -139.02182000000016
  endloop
endfacet
facet normal 0.0 0.0 1.0
  outer loop
    vertex -3.903314723952383 14.56736886772201 -139.02182000000016
    vertex -3.287001872802016 12.267257993871166 -139.02182000000016
    vertex 5.639932965095795e-15 15.081249999999999 -139.02182000000016
  endloop
endfacet
facet normal 0.0 0.0 1.0
  outer loop
    vertex 5.639932965095795e-15 15.081249999999999 -139.02182000000016
    vertex -3.287001872802016 12.267257993871166 -139.02182000000016
    vertex 2.8199664825478975e-15 12.7 -139.02182000000016
  endloop
endfacet
facet normal 0.0 0.0 1.0
  outer loop
    vertex 5.639932965095795e-15 15.081249999999999 -139.02182000000016
    vertex 2.8199664825478975e-15 12.7 -139.02182000000016
    vertex 3.287001872802022 12.267257993871166 -139.02182000000016
  endloop
endfacet
facet normal 0.0 0.0 1.0
  outer loop
    vertex 5.639932965095795e-15 15.081249999999999 -139.02182000000016
    vertex 3.287001872802022 12.267257993871166 -139.02182000000016
    vertex 3.9033147239523998 14.56736886772201 -139.02182000000016
  endloop
endfacet
facet normal 0.0 0.0 1.0
  outer loop
    vertex 3.9033147239523998 14.56736886772201 -139.02182000000016
    vertex 3.287001872802022 12.267257993871166 -139.02182000000016
    vertex 6.349999999999997 10.998522628062373 -139.02182000000016
  endloop
endfacet
facet normal 0.0 0.0 1.0
  outer loop
    vertex 3.9033147239523998 14.56736886772201 -139.02182000000016
    vertex 6.349999999999997 10.998522628062373 -139.02182000000016
    vertex 7.540625000000008 13.060745620824061 -139.02182000000016
  endloop
endfacet
facet normal 0.0 0.0 1.0
  outer loop
    vertex 7.540625000000008 13.060745620824061 -139.02182000000016
    vertex 6.349999999999997 10.998522628062373 -139.02182000000016
    vertex 8.980256121069155 8.980256121069152 -139.02182000000016
  endloop
endfacet
facet normal 0.0 0.0 1.0
  outer loop
    vertex 7.540625000000008 13.060745620824061 -139.02182000000016
    vertex 8.980256121069155 8.980256121069152 -139.02182000000016
    vertex 10.664054143769624 10.664054143769615 -139.02182000000016
  endloop
endfacet
facet normal 0.0 0.0 1.0
  outer loop
    vertex 10.664054143769624 10.664054143769615 -139.02182000000016
    vertex 8.980256121069155 8.980256121069152 -139.02182000000016
    vertex 10.99852262806237 6.350000000000002 -139.02182000000016
  endloop
endfacet
facet normal 0.0 0.0 1.0
  outer loop
    vertex 10.664054143769624 10.664054143769615 -139.02182000000016
    vertex 10.99852262806237 6.350000000000002 -139.02182000000016
    vertex 13.06074562082407 7.540624999999994 -139.02182000000016
  endloop
endfacet
facet normal 0.0 0.0 1.0
  outer loop
    vertex 13.06074562082407 7.540624999999994 -139.02182000000016
    vertex 10.99852262806237 6.350000000000002 -139.02182000000016
    vertex 12.267257993871167 3.2870018728020187 -139.02182000000016
  endloop
endfacet
facet normal 0.0 0.0 1.0
  outer loop
    vertex 13.06074562082407 7.540624999999994 -139.02182000000016
    vertex 12.267257993871167 3.2870018728020187 -139.02182000000016
    vertex 12.700000000000003 -2.8199664825478975e-15 -139.02182000000016
  endloop
endfacet
facet normal 0.0 0.0 1.0
  outer loop
    vertex 13.06074562082407 7.540624999999994 -139.02182000000016
    vertex 12.700000000000003 -2.8199664825478975e-15 -139.02182000000016
    vertex 13.060745620824065 -7.540625000000009 -139.02182000000016
  endloop
endfacet
facet normal 0.0 0.0 1.0
  outer loop
    vertex 13.06074562082407 7.540624999999994 -139.02182000000016
    vertex 13.060745620824065 -7.540625000000009 -139.02182000000016
    vertex 14.567368867722012 -3.9033147239524055 -139.02182000000016
  endloop
endfacet
facet normal 0.0 0.0 1.0
  outer loop
    vertex 13.06074562082407 7.540624999999994 -139.02182000000016
    vertex 14.567368867722012 -3.9033147239524055 -139.02182000000016
    vertex 14.567368867722012 3.9033147239523887 -139.02182000000016
  endloop
endfacet
facet normal 0.0 0.0 1.0
  outer loop
    vertex 14.567368867722012 3.9033147239523887 -139.02182000000016
    vertex 14.567368867722012 -3.9033147239524055 -139.02182000000016
    vertex 15.081250000000002 -2.8199664825478975e-15 -139.02182000000016
  endloop
endfacet
facet normal 0.9914448613738105 0.13052619222005185 0.0
  outer loop
    vertex 14.567368867722012 3.9033147239523887 -140.60932000000017
    vertex 15.081250000000002 -2.8199664825478975e-15 -139.02182000000016
    vertex 15.081250000000002 -2.8199664825478975e-15 -140.60932000000017
  endloop
endfacet
facet normal 0.9914448613738105 0.13052619222005185 0.0
  outer loop
    vertex 15.081250000000002 -2.8199664825478975e-15 -139.02182000000016
    vertex 14.567368867722012 3.9033147239523887 -140.60932000000017
    vertex 14.567368867722012 3.9033147239523887 -139.02182000000016
  endloop
endfacet
facet normal -0.3826834323650891 0.923879532511287 0.0
  outer loop
    vertex -7.5406249999999915 13.060745620824067 -139.02182000000016
    vertex -3.903314723952383 14.56736886772201 -140.60932000000017
    vertex -7.5406249999999915 13.060745620824067 -140.60932000000017
  endloop
endfacet
facet normal -0.3826834323650891 0.923879532511287 0.0
  outer loop
    vertex -3.903314723952383 14.56736886772201 -140.60932000000017
    vertex -7.5406249999999915 13.060745620824067 -139.02182000000016
    vertex -3.903314723952383 14.56736886772201 -139.02182000000016
  endloop
endfacet
facet normal -0.6087614290087204 0.7933533402912355 0.0
  outer loop
    vertex -10.664054143769613 10.66405414376962 -139.02182000000016
    vertex -7.5406249999999915 13.060745620824067 -140.60932000000017
    vertex -10.664054143769613 10.66405414376962 -140.60932000000017
  endloop
endfacet
facet normal -0.6087614290087204 0.7933533402912355 0.0
  outer loop
    vertex -7.5406249999999915 13.060745620824067 -140.60932000000017
    vertex -10.664054143769613 10.66405414376962 -139.02182000000016
    vertex -7.5406249999999915 13.060745620824067 -139.02182000000016
  endloop
endfacet
facet normal 0.0 0.0 1.0
  outer loop
    vertex -3.2870018728020116 -12.267257993871166 -137.43432000000018
    vertex -3.06681449846779 -0.8217504682005005 -137.44702000000024
    vertex -3.174999999999997 2.8199664825478975e-15 -137.44702000000024
  endloop
endfacet
facet normal 0.0 0.0 1.0
  outer loop
    vertex -3.06681449846779 -0.8217504682005005 -137.44702000000024
    vertex -3.2870018728020116 -12.267257993871166 -137.43432000000018
    vertex 0.0 -12.7 -137.43432000000018
  endloop
endfacet
facet normal 0.0 0.0 1.0
  outer loop
    vertex -3.06681449846779 -0.8217504682005005 -137.44702000000024
    vertex 0.0 -12.7 -137.43432000000018
    vertex -2.7496306570155915 -1.587499999999997 -137.44702000000024
  endloop
endfacet
facet normal 0.0 0.0 1.0
  outer loop
    vertex -2.7496306570155915 -1.587499999999997 -137.44702000000024
    vertex 0.0 -12.7 -137.43432000000018
    vertex -2.2450640302672866 -2.2450640302672866 -137.44702000000024
  endloop
endfacet
facet normal 0.0 0.0 1.0
  outer loop
    vertex -2.2450640302672866 -2.2450640302672866 -137.44702000000024
    vertex 0.0 -12.7 -137.43432000000018
    vertex -1.5875 -2.7496306570155915 -137.44702000000024
  endloop
endfacet
facet normal 0.0 0.0 1.0
  outer loop
    vertex -1.5875 -2.7496306570155915 -137.44702000000024
    vertex 0.0 -12.7 -137.43432000000018
    vertex -0.8217504682004977 -3.0668144984677914 -137.44702000000024
  endloop
endfacet
facet normal 0.0 0.0 1.0
  outer loop
    vertex -0.8217504682004977 -3.0668144984677914 -137.44702000000024
    vertex 0.0 -12.7 -137.43432000000018
    vertex 2.8199664825478975e-15 -3.175 -137.44702000000024
  endloop
endfacet
facet normal 0.0 0.0 1.0
  outer loop
    vertex 2.8199664825478975e-15 -3.175 -137.44702000000024
    vertex 0.0 -12.7 -137.43432000000018
    vertex 3.287001872802016 -12.267257993871167 -137.43432000000018
  endloop
endfacet
facet normal 0.0 0.0 1.0
  outer loop
    vertex 2.8199664825478975e-15 -3.175 -137.44702000000024
    vertex 3.287001872802016 -12.267257993871167 -137.43432000000018
    vertex 0.8217504682005061 -3.0668144984677927 -137.44702000000024
  endloop
endfacet
facet normal 0.0 0.0 1.0
  outer loop
    vertex 0.8217504682005061 -3.0668144984677927 -137.44702000000024
    vertex 3.287001872802016 -12.267257993871167 -137.43432000000018
    vertex 1.5875000000000028 -2.7496306570155933 -137.44702000000024
  endloop
endfacet
facet normal 0.0 0.0 1.0
  outer loop
    vertex 1.5875000000000028 -2.7496306570155933 -137.44702000000024
    vertex 3.287001872802016 -12.267257993871167 -137.43432000000018
    vertex 2.2450640302672893 -2.2450640302672893 -137.44702000000024
  endloop
endfacet
facet normal 0.0 0.0 1.0
  outer loop
    vertex 2.2450640302672893 -2.2450640302672893 -137.44702000000024
    vertex 3.287001872802016 -12.267257993871167 -137.43432000000018
    vertex 2.7496306570155946 -1.5875 -137.44702000000024
  endloop
endfacet
facet normal 0.0 0.0 1.0
  outer loop
    vertex 2.7496306570155946 -1.5875 -137.44702000000024
    vertex 3.287001872802016 -12.267257993871167 -137.43432000000018
    vertex 3.0668144984677927 -0.8217504682005061 -137.44702000000024
  endloop
endfacet
facet normal 0.0 0.0 1.0
  outer loop
    vertex 3.0668144984677927 -0.8217504682005061 -137.44702000000024
    vertex 3.287001872802016 -12.267257993871167 -137.43432000000018
    vertex 3.1750000000000025 0.0 -137.44702000000024
  endloop
endfacet
facet normal 0.0 0.0 1.0
  outer loop
    vertex -12.267257993871164 -3.2870018728020134 -137.43432000000018
    vertex -12.267257993871164 3.2870018728020103 -137.43432000000018
    vertex -12.699999999999996 0.0 -137.43432000000018
  endloop
endfacet
facet normal 0.0 0.0 1.0
  outer loop
    vertex -12.267257993871164 3.2870018728020103 -137.43432000000018
    vertex -12.267257993871164 -3.2870018728020134 -137.43432000000018
    vertex -10.998522628062366 -6.350000000000001 -137.43432000000018
  endloop
endfacet
facet normal 0.0 0.0 1.0
  outer loop
    vertex -12.267257993871164 3.2870018728020103 -137.43432000000018
    vertex -10.998522628062366 -6.350000000000001 -137.43432000000018
    vertex -10.998522628062368 6.35 -137.43432000000018
  endloop
endfacet
facet normal 0.0 0.0 1.0
  outer loop
    vertex -10.998522628062368 6.35 -137.43432000000018
    vertex -10.998522628062366 -6.350000000000001 -137.43432000000018
    vertex -8.980256121069154 8.98025612106915 -137.43432000000018
  endloop
endfacet
facet normal 0.0 0.0 1.0
  outer loop
    vertex -8.980256121069154 8.98025612106915 -137.43432000000018
    vertex -10.998522628062366 -6.350000000000001 -137.43432000000018
    vertex -8.98025612106915 -8.980256121069152 -137.43432000000018
  endloop
endfacet
facet normal 0.0 0.0 1.0
  outer loop
    vertex -8.980256121069154 8.98025612106915 -137.43432000000018
    vertex -8.98025612106915 -8.980256121069152 -137.43432000000018
    vertex -6.35 10.998522628062366 -137.43432000000018
  endloop
endfacet
facet normal 0.0 0.0 1.0
  outer loop
    vertex -6.35 10.998522628062366 -137.43432000000018
    vertex -8.98025612106915 -8.980256121069152 -137.43432000000018
    vertex -6.349999999999997 -10.998522628062371 -137.43432000000018
  endloop
endfacet
facet normal 0.0 0.0 1.0
  outer loop
    vertex -6.35 10.998522628062366 -137.43432000000018
    vertex -6.349999999999997 -10.998522628062371 -137.43432000000018
    vertex -3.287001872802016 12.267257993871166 -137.43432000000018
  endloop
endfacet
facet normal 0.0 0.0 1.0
  outer loop
    vertex -3.287001872802016 12.267257993871166 -137.43432000000018
    vertex -6.349999999999997 -10.998522628062371 -137.43432000000018
    vertex -3.2870018728020116 -12.267257993871166 -137.43432000000018
  endloop
endfacet
facet normal 0.0 0.0 1.0
  outer loop
    vertex -3.287001872802016 12.267257993871166 -137.43432000000018
    vertex -3.2870018728020116 -12.267257993871166 -137.43432000000018
    vertex -3.174999999999997 2.8199664825478975e-15 -137.44702000000024
  endloop
endfacet
facet normal 0.0 0.0 1.0
  outer loop
    vertex -3.287001872802016 12.267257993871166 -137.43432000000018
    vertex -3.174999999999997 2.8199664825478975e-15 -137.44702000000024
    vertex -3.066814498467787 0.8217504682005061 -137.44702000000024
  endloop
endfacet
facet normal 0.0 0.0 1.0
  outer loop
    vertex -3.287001872802016 12.267257993871166 -137.43432000000018
    vertex -3.066814498467787 0.8217504682005061 -137.44702000000024
    vertex 2.8199664825478975e-15 12.7 -137.43432000000018
  endloop
endfacet
facet normal 0.0 0.0 1.0
  outer loop
    vertex 2.8199664825478975e-15 12.7 -137.43432000000018
    vertex -3.066814498467787 0.8217504682005061 -137.44702000000024
    vertex -2.749630657015589 1.5875000000000028 -137.44702000000024
  endloop
endfacet
facet normal 0.0 0.0 1.0
  outer loop
    vertex 2.8199664825478975e-15 12.7 -137.43432000000018
    vertex -2.749630657015589 1.5875000000000028 -137.44702000000024
    vertex -2.245064030267284 2.2450640302672893 -137.44702000000024
  endloop
endfacet
facet normal 0.0 0.0 1.0
  outer loop
    vertex 2.8199664825478975e-15 12.7 -137.43432000000018
    vertex -2.245064030267284 2.2450640302672893 -137.44702000000024
    vertex -1.5874999999999944 2.7496306570155946 -137.44702000000024
  endloop
endfacet
facet normal 0.0 0.0 1.0
  outer loop
    vertex 2.8199664825478975e-15 12.7 -137.43432000000018
    vertex -1.5874999999999944 2.7496306570155946 -137.44702000000024
    vertex -0.8217504682004977 3.0668144984677927 -137.44702000000024
  endloop
endfacet
facet normal 0.0 0.0 1.0
  outer loop
    vertex 2.8199664825478975e-15 12.7 -137.43432000000018
    vertex -0.8217504682004977 3.0668144984677927 -137.44702000000024
    vertex 5.639932965095795e-15 3.175 -137.44702000000024
  endloop
endfacet
facet normal 0.0 0.0 1.0
  outer loop
    vertex 2.8199664825478975e-15 12.7 -137.43432000000018
    vertex 5.639932965095795e-15 3.175 -137.44702000000024
    vertex 3.287001872802022 12.267257993871166 -137.43432000000018
  endloop
endfacet
facet normal 0.0 0.0 1.0
  outer loop
    vertex 3.287001872802022 12.267257993871166 -137.43432000000018
    vertex 5.639932965095795e-15 3.175 -137.44702000000024
    vertex 0.8217504682005089 3.06681449846779 -137.44702000000024
  endloop
endfacet
facet normal 0.0 0.0 1.0
  outer loop
    vertex 3.287001872802022 12.267257993871166 -137.43432000000018
    vertex 0.8217504682005089 3.06681449846779 -137.44702000000024
    vertex 1.5875000000000055 2.7496306570155915 -137.44702000000024
  endloop
endfacet
facet normal 0.0 0.0 1.0
  outer loop
    vertex 3.287001872802022 12.267257993871166 -137.43432000000018
    vertex 1.5875000000000055 2.7496306570155915 -137.44702000000024
    vertex 2.2450640302672924 2.2450640302672866 -137.44702000000024
  endloop
endfacet
facet normal 0.0 0.0 1.0
  outer loop
    vertex 3.287001872802022 12.267257993871166 -137.43432000000018
    vertex 2.2450640302672924 2.2450640302672866 -137.44702000000024
    vertex 2.7496306570155973 1.587499999999997 -137.44702000000024
  endloop
endfacet
facet normal 0.0 0.0 1.0
  outer loop
    vertex 3.287001872802022 12.267257993871166 -137.43432000000018
    vertex 2.7496306570155973 1.587499999999997 -137.44702000000024
    vertex 3.0668144984677954 0.8217504682005005 -137.44702000000024
  endloop
endfacet
facet normal 0.0 0.0 1.0
  outer loop
    vertex 3.287001872802022 12.267257993871166 -137.43432000000018
    vertex 3.0668144984677954 0.8217504682005005 -137.44702000000024
    vertex 3.1750000000000025 0.0 -137.44702000000024
  endloop
endfacet
facet normal 0.0 0.0 1.0
  outer loop
    vertex 3.287001872802022 12.267257993871166 -137.43432000000018
    vertex 3.1750000000000025 0.0 -137.44702000000024
    vertex 3.287001872802016 -12.267257993871167 -137.43432000000018
  endloop
endfacet
facet normal 0.0 0.0 1.0
  outer loop
    vertex 3.287001872802022 12.267257993871166 -137.43432000000018
    vertex 3.287001872802016 -12.267257993871167 -137.43432000000018
    vertex 6.350000000000002 -10.998522628062371 -137.43432000000018
  endloop
endfacet
facet normal 0.0 0.0 1.0
  outer loop
    vertex 3.287001872802022 12.267257993871166 -137.43432000000018
    vertex 6.350000000000002 -10.998522628062371 -137.43432000000018
    vertex 6.349999999999997 10.998522628062373 -137.43432000000018
  endloop
endfacet
facet normal 0.0 0.0 1.0
  outer loop
    vertex 6.349999999999997 10.998522628062373 -137.43432000000018
    vertex 6.350000000000002 -10.998522628062371 -137.43432000000018
    vertex 8.980256121069155 8.980256121069152 -137.43432000000018
  endloop
endfacet
facet normal 0.0 0.0 1.0
  outer loop
    vertex 8.980256121069155 8.980256121069152 -137.43432000000018
    vertex 6.350000000000002 -10.998522628062371 -137.43432000000018
    vertex 8.980256121069155 -8.980256121069154 -137.43432000000018
  endloop
endfacet
facet normal 0.0 0.0 1.0
  outer loop
    vertex 8.980256121069155 8.980256121069152 -137.43432000000018
    vertex 8.980256121069155 -8.980256121069154 -137.43432000000018
    vertex 10.99852262806237 -6.350000000000001 -137.43432000000018
  endloop
endfacet
facet normal 0.0 0.0 1.0
  outer loop
    vertex 8.980256121069155 8.980256121069152 -137.43432000000018
    vertex 10.99852262806237 -6.350000000000001 -137.43432000000018
    vertex 10.99852262806237 6.350000000000002 -137.43432000000018
  endloop
endfacet
facet normal 0.0 0.0 1.0
  outer loop
    vertex 10.99852262806237 6.350000000000002 -137.43432000000018
    vertex 10.99852262806237 -6.350000000000001 -137.43432000000018
    vertex 12.267257993871167 -3.287001872802016 -137.43432000000018
  endloop
endfacet
facet normal 0.0 0.0 1.0
  outer loop
    vertex 10.99852262806237 6.350000000000002 -137.43432000000018
    vertex 12.267257993871167 -3.287001872802016 -137.43432000000018
    vertex 12.267257993871167 3.2870018728020187 -137.43432000000018
  endloop
endfacet
facet normal 0.0 0.0 1.0
  outer loop
    vertex 12.267257993871167 3.2870018728020187 -137.43432000000018
    vertex 12.267257993871167 -3.287001872802016 -137.43432000000018
    vertex 12.700000000000003 -2.8199664825478975e-15 -137.43432000000018
  endloop
endfacet
facet normal -0.9238795325112867 -0.38268343236508995 -0.0
  outer loop
    vertex -12.267257993871164 -3.2870018728020134 -137.43432000000018
    vertex -10.998522628062366 -6.350000000000001 -139.02182000000016
    vertex -10.998522628062366 -6.350000000000001 -137.43432000000018
  endloop
endfacet
facet normal -0.9238795325112867 -0.38268343236508995 -0.0
  outer loop
    vertex -10.998522628062366 -6.350000000000001 -139.02182000000016
    vertex -12.267257993871164 -3.2870018728020134 -137.43432000000018
    vertex -12.267257993871164 -3.2870018728020134 -139.02182000000016
  endloop
endfacet
facet normal -0.9914448613738104 -0.13052619222005143 -0.0
  outer loop
    vertex -12.699999999999996 0.0 -137.43432000000018
    vertex -12.267257993871164 -3.2870018728020134 -139.02182000000016
    vertex -12.267257993871164 -3.2870018728020134 -137.43432000000018
  endloop
endfacet
facet normal -0.9914448613738104 -0.13052619222005143 -0.0
  outer loop
    vertex -12.267257993871164 -3.2870018728020134 -139.02182000000016
    vertex -12.699999999999996 0.0 -137.43432000000018
    vertex -12.699999999999996 0.0 -139.02182000000016
  endloop
endfacet
facet normal -0.9914448613738105 0.13052619222005166 0.0
  outer loop
    vertex -12.267257993871164 3.2870018728020103 -137.43432000000018
    vertex -12.699999999999996 0.0 -139.02182000000016
    vertex -12.699999999999996 0.0 -137.43432000000018
  endloop
endfacet
facet normal -0.9914448613738105 0.13052619222005166 0.0
  outer loop
    vertex -12.699999999999996 0.0 -139.02182000000016
    vertex -12.267257993871164 3.2870018728020103 -137.43432000000018
    vertex -12.267257993871164 3.2870018728020103 -139.02182000000016
  endloop
endfacet
facet normal -0.923879532511287 0.38268343236508956 0.0
  outer loop
    vertex -10.998522628062368 6.35 -137.43432000000018
    vertex -12.267257993871164 3.2870018728020103 -139.02182000000016
    vertex -12.267257993871164 3.2870018728020103 -137.43432000000018
  endloop
endfacet
facet normal -0.923879532511287 0.38268343236508956 0.0
  outer loop
    vertex -12.267257993871164 3.2870018728020103 -139.02182000000016
    vertex -10.998522628062368 6.35 -137.43432000000018
    vertex -10.998522628062368 6.35 -139.02182000000016
  endloop
endfacet
facet normal -0.7933533402912353 0.6087614290087205 0.0
  outer loop
    vertex -8.980256121069154 8.98025612106915 -137.43432000000018
    vertex -10.998522628062368 6.35 -139.02182000000016
    vertex -10.998522628062368 6.35 -137.43432000000018
  endloop
endfacet
facet normal -0.7933533402912353 0.6087614290087205 0.0
  outer loop
    vertex -10.998522628062368 6.35 -139.02182000000016
    vertex -8.980256121069154 8.98025612106915 -137.43432000000018
    vertex -8.980256121069154 8.98025612106915 -139.02182000000016
  endloop
endfacet
facet normal -0.6087614290087209 0.7933533402912352 0.0
  outer loop
    vertex -8.980256121069154 8.98025612106915 -137.43432000000018
    vertex -6.35 10.998522628062366 -139.02182000000016
    vertex -8.980256121069154 8.98025612106915 -139.02182000000016
  endloop
endfacet
facet normal -0.6087614290087209 0.7933533402912352 0.0
  outer loop
    vertex -6.35 10.998522628062366 -139.02182000000016
    vertex -8.980256121069154 8.98025612106915 -137.43432000000018
    vertex -6.35 10.998522628062366 -137.43432000000018
  endloop
endfacet
facet normal -0.38268343236509045 0.9238795325112866 0.0
  outer loop
    vertex -6.35 10.998522628062366 -137.43432000000018
    vertex -3.287001872802016 12.267257993871166 -139.02182000000016
    vertex -6.35 10.998522628062366 -139.02182000000016
  endloop
endfacet
facet normal -0.38268343236509045 0.9238795325112866 0.0
  outer loop
    vertex -3.287001872802016 12.267257993871166 -139.02182000000016
    vertex -6.35 10.998522628062366 -137.43432000000018
    vertex -3.287001872802016 12.267257993871166 -137.43432000000018
  endloop
endfacet
facet normal -0.13052619222005166 0.9914448613738105 0.0
  outer loop
    vertex -3.287001872802016 12.267257993871166 -137.43432000000018
    vertex 2.8199664825478975e-15 12.7 -139.02182000000016
    vertex -3.287001872802016 12.267257993871166 -139.02182000000016
  endloop
endfacet
facet normal -0.13052619222005166 0.9914448613738105 0.0
  outer loop
    vertex 2.8199664825478975e-15 12.7 -139.02182000000016
    vertex -3.287001872802016 12.267257993871166 -137.43432000000018
    vertex 2.8199664825478975e-15 12.7 -137.43432000000018
  endloop
endfacet
facet normal 0.13052619222005174 0.9914448613738105 0.0
  outer loop
    vertex 2.8199664825478975e-15 12.7 -137.43432000000018
    vertex 3.287001872802022 12.267257993871166 -139.02182000000016
    vertex 2.8199664825478975e-15 12.7 -139.02182000000016
  endloop
endfacet
facet normal 0.13052619222005174 0.9914448613738105 0.0
  outer loop
    vertex 3.287001872802022 12.267257993871166 -139.02182000000016
    vertex 2.8199664825478975e-15 12.7 -137.43432000000018
    vertex 3.287001872802022 12.267257993871166 -137.43432000000018
  endloop
endfacet
facet normal 0.3826834323650899 0.9238795325112867 0.0
  outer loop
    vertex 3.287001872802022 12.267257993871166 -137.43432000000018
    vertex 6.349999999999997 10.998522628062373 -139.02182000000016
    vertex 3.287001872802022 12.267257993871166 -139.02182000000016
  endloop
endfacet
facet normal 0.3826834323650899 0.9238795325112867 0.0
  outer loop
    vertex 6.349999999999997 10.998522628062373 -139.02182000000016
    vertex 3.287001872802022 12.267257993871166 -137.43432000000018
    vertex 6.349999999999997 10.998522628062373 -137.43432000000018
  endloop
endfacet
facet normal -0.793353340291235 -0.6087614290087207 -0.0
  outer loop
    vertex -10.998522628062366 -6.350000000000001 -137.43432000000018
    vertex -8.98025612106915 -8.980256121069152 -139.02182000000016
    vertex -8.98025612106915 -8.980256121069152 -137.43432000000018
  endloop
endfacet
facet normal -0.793353340291235 -0.6087614290087207 -0.0
  outer loop
    vertex -8.98025612106915 -8.980256121069152 -139.02182000000016
    vertex -10.998522628062366 -6.350000000000001 -137.43432000000018
    vertex -10.998522628062366 -6.350000000000001 -139.02182000000016
  endloop
endfacet
facet normal 0.9238795325112864 0.38268343236509045 0.0
  outer loop
    vertex 10.99852262806237 6.350000000000002 -139.02182000000016
    vertex 12.267257993871167 3.2870018728020187 -137.43432000000018
    vertex 12.267257993871167 3.2870018728020187 -139.02182000000016
  endloop
endfacet
facet normal 0.9238795325112864 0.38268343236509045 0.0
  outer loop
    vertex 12.267257993871167 3.2870018728020187 -137.43432000000018
    vertex 10.99852262806237 6.350000000000002 -139.02182000000016
    vertex 10.99852262806237 6.350000000000002 -137.43432000000018
  endloop
endfacet
facet normal 0.6087614290087201 0.7933533402912356 0.0
  outer loop
    vertex 6.349999999999997 10.998522628062373 -137.43432000000018
    vertex 8.980256121069155 8.980256121069152 -139.02182000000016
    vertex 6.349999999999997 10.998522628062373 -139.02182000000016
  endloop
endfacet
facet normal 0.6087614290087201 0.7933533402912356 0.0
  outer loop
    vertex 8.980256121069155 8.980256121069152 -139.02182000000016
    vertex 6.349999999999997 10.998522628062373 -137.43432000000018
    vertex 8.980256121069155 8.980256121069152 -137.43432000000018
  endloop
endfacet
facet normal 0.9914448613738105 0.13052619222005155 0.0
  outer loop
    vertex 12.267257993871167 3.2870018728020187 -139.02182000000016
    vertex 12.700000000000003 -2.8199664825478975e-15 -137.43432000000018
    vertex 12.700000000000003 -2.8199664825478975e-15 -139.02182000000016
  endloop
endfacet
facet normal 0.9914448613738105 0.13052619222005155 0.0
  outer loop
    vertex 12.700000000000003 -2.8199664825478975e-15 -137.43432000000018
    vertex 12.267257993871167 3.2870018728020187 -139.02182000000016
    vertex 12.267257993871167 3.2870018728020187 -137.43432000000018
  endloop
endfacet
facet normal 0.9914448613738105 -0.13052619222005193 0.0
  outer loop
    vertex 12.700000000000003 -2.8199664825478975e-15 -139.02182000000016
    vertex 12.267257993871167 -3.287001872802016 -137.43432000000018
    vertex 12.267257993871167 -3.287001872802016 -139.02182000000016
  endloop
endfacet
facet normal 0.9914448613738105 -0.13052619222005193 0.0
  outer loop
    vertex 12.267257993871167 -3.287001872802016 -137.43432000000018
    vertex 12.700000000000003 -2.8199664825478975e-15 -139.02182000000016
    vertex 12.700000000000003 -2.8199664825478975e-15 -137.43432000000018
  endloop
endfacet
facet normal 0.9238795325112867 -0.3826834323650898 0.0
  outer loop
    vertex 12.267257993871167 -3.287001872802016 -139.02182000000016
    vertex 10.99852262806237 -6.350000000000001 -137.43432000000018
    vertex 10.99852262806237 -6.350000000000001 -139.02182000000016
  endloop
endfacet
facet normal 0.9238795325112867 -0.3826834323650898 0.0
  outer loop
    vertex 10.99852262806237 -6.350000000000001 -137.43432000000018
    vertex 12.267257993871167 -3.287001872802016 -139.02182000000016
    vertex 12.267257993871167 -3.287001872802016 -137.43432000000018
  endloop
endfacet
facet normal 0.793353340291235 -0.6087614290087208 0.0
  outer loop
    vertex 10.99852262806237 -6.350000000000001 -139.02182000000016
    vertex 8.980256121069155 -8.980256121069154 -137.43432000000018
    vertex 8.980256121069155 -8.980256121069154 -139.02182000000016
  endloop
endfacet
facet normal 0.793353340291235 -0.6087614290087208 0.0
  outer loop
    vertex 8.980256121069155 -8.980256121069154 -137.43432000000018
    vertex 10.99852262806237 -6.350000000000001 -139.02182000000016
    vertex 10.99852262806237 -6.350000000000001 -137.43432000000018
  endloop
endfacet
facet normal 0.6087614290087208 -0.793353340291235 0.0
  outer loop
    vertex 8.980256121069155 -8.980256121069154 -137.43432000000018
    vertex 6.350000000000002 -10.998522628062371 -139.02182000000016
    vertex 8.980256121069155 -8.980256121069154 -139.02182000000016
  endloop
endfacet
facet normal 0.6087614290087208 -0.793353340291235 0.0
  outer loop
    vertex 6.350000000000002 -10.998522628062371 -139.02182000000016
    vertex 8.980256121069155 -8.980256121069154 -137.43432000000018
    vertex 6.350000000000002 -10.998522628062371 -137.43432000000018
  endloop
endfacet
facet normal 0.3826834323650896 -0.9238795325112867 0.0
  outer loop
    vertex 6.350000000000002 -10.998522628062371 -137.43432000000018
    vertex 3.287001872802016 -12.267257993871167 -139.02182000000016
    vertex 6.350000000000002 -10.998522628062371 -139.02182000000016
  endloop
endfacet
facet normal 0.3826834323650896 -0.9238795325112867 0.0
  outer loop
    vertex 3.287001872802016 -12.267257993871167 -139.02182000000016
    vertex 6.350000000000002 -10.998522628062371 -137.43432000000018
    vertex 3.287001872802016 -12.267257993871167 -137.43432000000018
  endloop
endfacet
facet normal 0.13052619222005143 -0.9914448613738104 0.0
  outer loop
    vertex 3.287001872802016 -12.267257993871167 -137.43432000000018
    vertex 0.0 -12.7 -139.02182000000016
    vertex 3.287001872802016 -12.267257993871167 -139.02182000000016
  endloop
endfacet
facet normal 0.13052619222005143 -0.9914448613738104 0.0
  outer loop
    vertex 0.0 -12.7 -139.02182000000016
    vertex 3.287001872802016 -12.267257993871167 -137.43432000000018
    vertex 0.0 -12.7 -137.43432000000018
  endloop
endfacet
facet normal -0.13052619222005196 -0.9914448613738105 -0.0
  outer loop
    vertex 0.0 -12.7 -137.43432000000018
    vertex -3.2870018728020116 -12.267257993871166 -139.02182000000016
    vertex 0.0 -12.7 -139.02182000000016
  endloop
endfacet
facet normal -0.13052619222005196 -0.9914448613738105 -0.0
  outer loop
    vertex -3.2870018728020116 -12.267257993871166 -139.02182000000016
    vertex 0.0 -12.7 -137.43432000000018
    vertex -3.2870018728020116 -12.267257993871166 -137.43432000000018
  endloop
endfacet
facet normal -0.3826834323650895 -0.9238795325112868 -0.0
  outer loop
    vertex -3.2870018728020116 -12.267257993871166 -137.43432000000018
    vertex -6.349999999999997 -10.998522628062371 -139.02182000000016
    vertex -3.2870018728020116 -12.267257993871166 -139.02182000000016
  endloop
endfacet
facet normal -0.3826834323650895 -0.9238795325112868 -0.0
  outer loop
    vertex -6.349999999999997 -10.998522628062371 -139.02182000000016
    vertex -3.2870018728020116 -12.267257993871166 -137.43432000000018
    vertex -6.349999999999997 -10.998522628062371 -137.43432000000018
  endloop
endfacet
facet normal -0.6087614290087207 -0.793353340291235 -0.0
  outer loop
    vertex -6.349999999999997 -10.998522628062371 -137.43432000000018
    vertex -8.98025612106915 -8.980256121069152 -139.02182000000016
    vertex -6.349999999999997 -10.998522628062371 -139.02182000000016
  endloop
endfacet
facet normal -0.6087614290087207 -0.793353340291235 -0.0
  outer loop
    vertex -8.98025612106915 -8.980256121069152 -139.02182000000016
    vertex -6.349999999999997 -10.998522628062371 -137.43432000000018
    vertex -8.98025612106915 -8.980256121069152 -137.43432000000018
  endloop
endfacet
facet normal -0.1305261922200511 0.9914448613738105 0.0
  outer loop
    vertex 2.8199664825478975e-15 -3.175 -137.44702000000024
    vertex 0.8217504682005061 -3.0668144984677927 -140.60932000000017
    vertex 2.8199664825478975e-15 -3.175 -140.60932000000017
  endloop
endfacet
facet normal -0.1305261922200511 0.9914448613738105 0.0
  outer loop
    vertex 0.8217504682005061 -3.0668144984677927 -140.60932000000017
    vertex 2.8199664825478975e-15 -3.175 -137.44702000000024
    vertex 0.8217504682005061 -3.0668144984677927 -137.44702000000024
  endloop
endfacet
facet normal 0.13052619222005216 0.9914448613738105 1.0215204199423235e-18
  outer loop
    vertex -0.8217504682005005 -3.0668144984677914 -139.02182000000016
    vertex 2.8199664825478975e-15 -3.175 -140.60932000000017
    vertex -0.8217504682004977 -3.0668144984677914 -140.60932000000017
  endloop
endfacet
facet normal 0.13052619222005216 0.9914448613738105 1.0215204199423235e-18
  outer loop
    vertex 2.8199664825478975e-15 -3.175 -140.60932000000017
    vertex -0.8217504682005005 -3.0668144984677914 -139.02182000000016
    vertex 2.8199664825478975e-15 -3.175 -137.44702000000024
  endloop
endfacet
facet normal 0.13052619222005216 0.9914448613738105 1.0215204199423235e-18
  outer loop
    vertex 2.8199664825478975e-15 -3.175 -137.44702000000024
    vertex -0.8217504682005005 -3.0668144984677914 -139.02182000000016
    vertex -0.8217504682004977 -3.0668144984677914 -137.44702000000024
  endloop
endfacet
facet normal 0.3826834323650897 0.9238795325112868 -7.820502027316044e-18
  outer loop
    vertex -1.5875 -2.7496306570155915 -137.44702000000024
    vertex -0.8217504682004977 -3.0668144984677914 -140.60932000000017
    vertex -1.5875 -2.7496306570155915 -140.60932000000017
  endloop
endfacet
facet normal 0.3826834323650897 0.9238795325112868 -7.820502027316044e-18
  outer loop
    vertex -0.8217504682004977 -3.0668144984677914 -140.60932000000017
    vertex -1.5875 -2.7496306570155915 -137.44702000000024
    vertex -0.8217504682005005 -3.0668144984677914 -139.02182000000016
  endloop
endfacet
facet normal 0.3826834323650897 0.9238795325112868 -7.820502027316044e-18
  outer loop
    vertex -0.8217504682005005 -3.0668144984677914 -139.02182000000016
    vertex -1.5875 -2.7496306570155915 -137.44702000000024
    vertex -0.8217504682004977 -3.0668144984677914 -137.44702000000024
  endloop
endfacet
facet normal 0.6087614290087209 0.7933533402912349 0.0
  outer loop
    vertex -2.2450640302672866 -2.2450640302672866 -137.44702000000024
    vertex -1.5875 -2.7496306570155915 -140.60932000000017
    vertex -2.2450640302672866 -2.2450640302672866 -140.60932000000017
  endloop
endfacet
facet normal 0.6087614290087209 0.7933533402912349 0.0
  outer loop
    vertex -1.5875 -2.7496306570155915 -140.60932000000017
    vertex -2.2450640302672866 -2.2450640302672866 -137.44702000000024
    vertex -1.5875 -2.7496306570155915 -137.44702000000024
  endloop
endfacet
facet normal 0.7933533402912358 0.6087614290087198 0.0
  outer loop
    vertex -2.7496306570155915 -1.587499999999997 -140.60932000000017
    vertex -2.2450640302672866 -2.2450640302672866 -137.44702000000024
    vertex -2.2450640302672866 -2.2450640302672866 -140.60932000000017
  endloop
endfacet
facet normal 0.7933533402912358 0.6087614290087198 0.0
  outer loop
    vertex -2.2450640302672866 -2.2450640302672866 -137.44702000000024
    vertex -2.7496306570155915 -1.587499999999997 -140.60932000000017
    vertex -2.7496306570155915 -1.587499999999997 -137.44702000000024
  endloop
endfacet
facet normal 0.9238795325112871 0.3826834323650889 0.0
  outer loop
    vertex -3.06681449846779 -0.8217504682005005 -140.60932000000017
    vertex -2.7496306570155915 -1.587499999999997 -137.44702000000024
    vertex -2.7496306570155915 -1.587499999999997 -140.60932000000017
  endloop
endfacet
facet normal 0.9238795325112871 0.3826834323650889 0.0
  outer loop
    vertex -2.7496306570155915 -1.587499999999997 -137.44702000000024
    vertex -3.06681449846779 -0.8217504682005005 -140.60932000000017
    vertex -3.06681449846779 -0.8217504682005005 -137.44702000000024
  endloop
endfacet
facet normal 0.9914448613738106 0.1305261922200508 0.0
  outer loop
    vertex -3.174999999999997 2.8199664825478975e-15 -140.60932000000017
    vertex -3.06681449846779 -0.8217504682005005 -137.44702000000024
    vertex -3.06681449846779 -0.8217504682005005 -140.60932000000017
  endloop
endfacet
facet normal 0.9914448613738106 0.1305261922200508 0.0
  outer loop
    vertex -3.06681449846779 -0.8217504682005005 -137.44702000000024
    vertex -3.174999999999997 2.8199664825478975e-15 -140.60932000000017
    vertex -3.174999999999997 2.8199664825478975e-15 -137.44702000000024
  endloop
endfacet
facet normal 0.9914448613738103 -0.13052619222005252 0.0
  outer loop
    vertex -3.066814498467787 0.8217504682005061 -140.60932000000017
    vertex -3.174999999999997 2.8199664825478975e-15 -137.44702000000024
    vertex -3.174999999999997 2.8199664825478975e-15 -140.60932000000017
  endloop
endfacet
facet normal 0.9914448613738103 -0.13052619222005252 0.0
  outer loop
    vertex -3.174999999999997 2.8199664825478975e-15 -137.44702000000024
    vertex -3.066814498467787 0.8217504682005061 -140.60932000000017
    vertex -3.066814498467787 0.8217504682005061 -137.44702000000024
  endloop
endfacet
facet normal 0.9238795325112864 -0.3826834323650908 0.0
  outer loop
    vertex -2.749630657015589 1.5875000000000028 -140.60932000000017
    vertex -3.066814498467787 0.8217504682005061 -137.44702000000024
    vertex -3.066814498467787 0.8217504682005061 -140.60932000000017
  endloop
endfacet
facet normal 0.9238795325112864 -0.3826834323650908 0.0
  outer loop
    vertex -3.066814498467787 0.8217504682005061 -137.44702000000024
    vertex -2.749630657015589 1.5875000000000028 -140.60932000000017
    vertex -2.749630657015589 1.5875000000000028 -137.44702000000024
  endloop
endfacet
facet normal 0.7933533402912348 -0.6087614290087213 0.0
  outer loop
    vertex -2.245064030267284 2.2450640302672893 -140.60932000000017
    vertex -2.749630657015589 1.5875000000000028 -137.44702000000024
    vertex -2.749630657015589 1.5875000000000028 -140.60932000000017
  endloop
endfacet
facet normal 0.7933533402912348 -0.6087614290087213 0.0
  outer loop
    vertex -2.749630657015589 1.5875000000000028 -137.44702000000024
    vertex -2.245064030267284 2.2450640302672893 -140.60932000000017
    vertex -2.245064030267284 2.2450640302672893 -137.44702000000024
  endloop
endfacet
facet normal 0.6087614290087203 -0.7933533402912355 0.0
  outer loop
    vertex -1.5874999999999944 2.7496306570155946 -137.44702000000024
    vertex -2.245064030267284 2.2450640302672893 -140.60932000000017
    vertex -1.5874999999999944 2.7496306570155946 -140.60932000000017
  endloop
endfacet
facet normal 0.6087614290087203 -0.7933533402912355 0.0
  outer loop
    vertex -2.245064030267284 2.2450640302672893 -140.60932000000017
    vertex -1.5874999999999944 2.7496306570155946 -137.44702000000024
    vertex -2.245064030267284 2.2450640302672893 -137.44702000000024
  endloop
endfacet
facet normal 0.3826834323650891 -0.9238795325112872 0.0
  outer loop
    vertex -0.8217504682004977 3.0668144984677927 -137.44702000000024
    vertex -1.5874999999999944 2.7496306570155946 -140.60932000000017
    vertex -0.8217504682004977 3.0668144984677927 -140.60932000000017
  endloop
endfacet
facet normal 0.3826834323650891 -0.9238795325112872 0.0
  outer loop
    vertex -1.5874999999999944 2.7496306570155946 -140.60932000000017
    vertex -0.8217504682004977 3.0668144984677927 -137.44702000000024
    vertex -1.5874999999999944 2.7496306570155946 -137.44702000000024
  endloop
endfacet
facet normal 0.1305261922200508 -0.9914448613738106 0.0
  outer loop
    vertex 5.639932965095795e-15 3.175 -137.44702000000024
    vertex -0.8217504682004977 3.0668144984677927 -140.60932000000017
    vertex 5.639932965095795e-15 3.175 -140.60932000000017
  endloop
endfacet
facet normal 0.1305261922200508 -0.9914448613738106 0.0
  outer loop
    vertex -0.8217504682004977 3.0668144984677927 -140.60932000000017
    vertex 5.639932965095795e-15 3.175 -137.44702000000024
    vertex -0.8217504682004977 3.0668144984677927 -137.44702000000024
  endloop
endfacet
facet normal -0.1305261922200523 -0.9914448613738104 -0.0
  outer loop
    vertex 0.8217504682005089 3.06681449846779 -137.44702000000024
    vertex 5.639932965095795e-15 3.175 -140.60932000000017
    vertex 0.8217504682005089 3.06681449846779 -140.60932000000017
  endloop
endfacet
facet normal -0.1305261922200523 -0.9914448613738104 -0.0
  outer loop
    vertex 5.639932965095795e-15 3.175 -140.60932000000017
    vertex 0.8217504682005089 3.06681449846779 -137.44702000000024
    vertex 5.639932965095795e-15 3.175 -137.44702000000024
  endloop
endfacet
facet normal -0.3826834323650903 -0.9238795325112865 -0.0
  outer loop
    vertex 1.5875000000000055 2.7496306570155915 -137.44702000000024
    vertex 0.8217504682005089 3.06681449846779 -140.60932000000017
    vertex 1.5875000000000055 2.7496306570155915 -140.60932000000017
  endloop
endfacet
facet normal -0.3826834323650903 -0.9238795325112865 -0.0
  outer loop
    vertex 0.8217504682005089 3.06681449846779 -140.60932000000017
    vertex 1.5875000000000055 2.7496306570155915 -137.44702000000024
    vertex 0.8217504682005089 3.06681449846779 -137.44702000000024
  endloop
endfacet
facet normal -0.6087614290087211 -0.7933533402912348 -0.0
  outer loop
    vertex 2.2450640302672924 2.2450640302672866 -137.44702000000024
    vertex 1.5875000000000055 2.7496306570155915 -140.60932000000017
    vertex 2.2450640302672924 2.2450640302672866 -140.60932000000017
  endloop
endfacet
facet normal -0.6087614290087211 -0.7933533402912348 -0.0
  outer loop
    vertex 1.5875000000000055 2.7496306570155915 -140.60932000000017
    vertex 2.2450640302672924 2.2450640302672866 -137.44702000000024
    vertex 1.5875000000000055 2.7496306570155915 -137.44702000000024
  endloop
endfacet
facet normal -0.7933533402912353 -0.6087614290087204 -0.0
  outer loop
    vertex 2.2450640302672924 2.2450640302672866 -137.44702000000024
    vertex 2.7496306570155973 1.587499999999997 -140.60932000000017
    vertex 2.7496306570155973 1.587499999999997 -137.44702000000024
  endloop
endfacet
facet normal -0.7933533402912353 -0.6087614290087204 -0.0
  outer loop
    vertex 2.7496306570155973 1.587499999999997 -140.60932000000017
    vertex 2.2450640302672924 2.2450640302672866 -137.44702000000024
    vertex 2.2450640302672924 2.2450640302672866 -140.60932000000017
  endloop
endfacet
facet normal -0.9238795325112871 -0.38268343236508906 -0.0
  outer loop
    vertex 2.7496306570155973 1.587499999999997 -137.44702000000024
    vertex 3.0668144984677954 0.8217504682005005 -140.60932000000017
    vertex 3.0668144984677954 0.8217504682005005 -137.44702000000024
  endloop
endfacet
facet normal -0.9238795325112871 -0.38268343236508906 -0.0
  outer loop
    vertex 3.0668144984677954 0.8217504682005005 -140.60932000000017
    vertex 2.7496306570155973 1.587499999999997 -137.44702000000024
    vertex 2.7496306570155973 1.587499999999997 -140.60932000000017
  endloop
endfacet
facet normal -0.9914448613738105 -0.1305261922200511 -0.0
  outer loop
    vertex 3.0668144984677954 0.8217504682005005 -137.44702000000024
    vertex 3.1750000000000025 0.0 -140.60932000000017
    vertex 3.1750000000000025 0.0 -137.44702000000024
  endloop
endfacet
facet normal -0.9914448613738105 -0.1305261922200511 -0.0
  outer loop
    vertex 3.1750000000000025 0.0 -140.60932000000017
    vertex 3.0668144984677954 0.8217504682005005 -137.44702000000024
    vertex 3.0668144984677954 0.8217504682005005 -140.60932000000017
  endloop
endfacet
facet normal -0.9914448613738104 0.1305261922200523 0.0
  outer loop
    vertex 3.1750000000000025 0.0 -137.44702000000024
    vertex 3.0668144984677927 -0.8217504682005061 -140.60932000000017
    vertex 3.0668144984677927 -0.8217504682005061 -137.44702000000024
  endloop
endfacet
facet normal -0.9914448613738104 0.1305261922200523 0.0
  outer loop
    vertex 3.0668144984677927 -0.8217504682005061 -140.60932000000017
    vertex 3.1750000000000025 0.0 -137.44702000000024
    vertex 3.1750000000000025 0.0 -140.60932000000017
  endloop
endfacet
facet normal -0.9238795325112867 0.3826834323650902 0.0
  outer loop
    vertex 3.0668144984677927 -0.8217504682005061 -137.44702000000024
    vertex 2.7496306570155946 -1.5875 -140.60932000000017
    vertex 2.7496306570155946 -1.5875 -137.44702000000024
  endloop
endfacet
facet normal -0.9238795325112867 0.3826834323650902 0.0
  outer loop
    vertex 2.7496306570155946 -1.5875 -140.60932000000017
    vertex 3.0668144984677927 -0.8217504682005061 -137.44702000000024
    vertex 3.0668144984677927 -0.8217504682005061 -140.60932000000017
  endloop
endfacet
facet normal -0.7933533402912349 0.6087614290087211 0.0
  outer loop
    vertex 2.7496306570155946 -1.5875 -137.44702000000024
    vertex 2.2450640302672893 -2.2450640302672893 -140.60932000000017
    vertex 2.2450640302672893 -2.2450640302672893 -137.44702000000024
  endloop
endfacet
facet normal -0.7933533402912349 0.6087614290087211 0.0
  outer loop
    vertex 2.2450640302672893 -2.2450640302672893 -140.60932000000017
    vertex 2.7496306570155946 -1.5875 -137.44702000000024
    vertex 2.7496306570155946 -1.5875 -140.60932000000017
  endloop
endfacet
facet normal -0.6087614290087203 0.7933533402912354 0.0
  outer loop
    vertex 1.5875000000000028 -2.7496306570155933 -137.44702000000024
    vertex 2.2450640302672893 -2.2450640302672893 -140.60932000000017
    vertex 1.5875000000000028 -2.7496306570155933 -140.60932000000017
  endloop
endfacet
facet normal -0.6087614290087203 0.7933533402912354 0.0
  outer loop
    vertex 2.2450640302672893 -2.2450640302672893 -140.60932000000017
    vertex 1.5875000000000028 -2.7496306570155933 -137.44702000000024
    vertex 2.2450640302672893 -2.2450640302672893 -137.44702000000024
  endloop
endfacet
facet normal -0.38268343236508945 0.923879532511287 0.0
  outer loop
    vertex 0.8217504682005061 -3.0668144984677927 -137.44702000000024
    vertex 1.5875000000000028 -2.7496306570155933 -140.60932000000017
    vertex 0.8217504682005061 -3.0668144984677927 -140.60932000000017
  endloop
endfacet
facet normal -0.38268343236508945 0.923879532511287 0.0
  outer loop
    vertex 1.5875000000000028 -2.7496306570155933 -140.60932000000017
    vertex 0.8217504682005061 -3.0668144984677927 -137.44702000000024
    vertex 1.5875000000000028 -2.7496306570155933 -137.44702000000024
  endloop
endfacet
endsolid Untitled-5bbe3eda
